<svg width="133" height="57" viewBox="0 0 133 57" fill="none" xmlns="http://www.w3.org/2000/svg">
<path d="M112.726 31.7289H128.13C128.623 31.7289 129.025 31.3287 128.999 30.8366C128.535 22.2575 121.427 15.4437 112.726 15.4437C103.726 15.4437 96.4295 22.7348 96.4295 31.7289C96.4295 40.7229 103.726 48.0141 112.726 48.0141H119.757M107.873 4H117.996" stroke="#8255CC" stroke-width="7.92254" stroke-linecap="round"/>
<path d="M4.00001 48.0139L4 27.5476C4.14671 24.2465 6.2007 14.1233 18.9648 15.6638" stroke="#8255CC" stroke-width="7.92254" stroke-linecap="round"/>
<path d="M73.1022 15.5054L73.1022 35.9717C73.2489 39.2728 75.3029 49.396 88.067 47.8555" stroke="#8255CC" stroke-width="7.92254" stroke-linecap="round"/>
<circle cx="43.6127" cy="31.7289" r="16.2852" stroke="#8255CC" stroke-width="7.92254"/>
<path d="M31.444 44.2729L23.4579 52.259" stroke="#8255CC" stroke-width="7.92254" stroke-linecap="round"/>
</svg>
