<svg width="178" height="79" viewBox="0 0 178 79" fill="none" xmlns="http://www.w3.org/2000/svg">
<path d="M151.128 44.5539H171.83C172.493 44.5539 173.034 43.9831 172.998 43.2811C172.375 31.0434 162.822 21.3238 151.128 21.3238C139.031 21.3238 129.225 31.7243 129.225 44.5539C129.225 57.3835 139.031 67.7839 151.128 67.7839H160.577M144.606 5H158.211" stroke="white" stroke-width="9.84417" stroke-linecap="round"/>
<path d="M5.00001 67.7836L5 38.5894C5.19718 33.8806 7.95775 19.4403 25.1127 21.6377" stroke="white" stroke-width="9.84417" stroke-linecap="round"/>
<path d="M97.8732 21.4118L97.8732 50.606C98.0704 55.3148 100.831 69.7551 117.986 67.5577" stroke="white" stroke-width="9.84417" stroke-linecap="round"/>
<path d="M80.5285 44.5539C80.5285 58.066 70.2773 68.5124 58.2393 68.5124C46.2014 68.5124 35.9502 58.066 35.9502 44.5539C35.9502 31.0418 46.2014 20.5954 58.2393 20.5954C70.2773 20.5954 80.5285 31.0418 80.5285 44.5539Z" stroke="white" stroke-width="9.84417"/>
<path d="M41.8849 62.4473L31.1516 73.839" stroke="white" stroke-width="9.84417" stroke-linecap="round"/>
</svg>
