<svg width="168" height="69" viewBox="0 0 168 69" fill="none" xmlns="http://www.w3.org/2000/svg">
<path d="M6.46338 68.6502C4.8912 68.6502 3.58106 68.178 2.53294 67.2337C1.54306 66.2265 1.04812 64.81 1.04812 62.9844V26.5347C1.04812 24.709 1.54306 23.3241 2.53294 22.3798C3.58106 21.4355 4.8912 20.9633 6.46338 20.9633C8.03555 20.9633 9.34569 21.4355 10.3938 22.3798C11.4419 23.3241 11.966 24.709 11.966 26.5347V62.9844C11.966 64.81 11.4419 66.2265 10.3938 67.2337C9.34569 68.178 8.03555 68.6502 6.46338 68.6502ZM6.46338 12.5591C4.4836 12.5591 2.91143 11.9925 1.74686 10.8594C0.582286 9.66328 0 8.12093 0 6.23234C0 4.34375 0.582286 2.83288 1.74686 1.69973C2.91143 0.566577 4.4836 0 6.46338 0C8.38492 0 9.92798 0.566577 11.0926 1.69973C12.3154 2.83288 12.9268 4.34375 12.9268 6.23234C12.9268 8.12093 12.3445 9.66328 11.1799 10.8594C10.0153 11.9925 8.44315 12.5591 6.46338 12.5591Z" fill="white"/>
<path d="M48.0304 20.7745C53.1545 20.7745 56.9685 22.3483 59.4723 25.4959C61.9762 28.6436 63.2281 33.3965 63.2281 39.7548V62.9844C63.2281 64.7471 62.7331 66.1321 61.7433 67.1393C60.8116 68.1465 59.5014 68.6502 57.8128 68.6502C56.1242 68.6502 54.7849 68.1465 53.795 67.1393C52.8052 66.1321 52.3102 64.7471 52.3102 62.9844V40.4158C52.3102 36.8275 51.6697 34.2149 50.3887 32.5781C49.1659 30.9414 47.2152 30.123 44.5367 30.123C41.3924 30.123 38.8594 31.1932 36.9379 33.3336C35.0746 35.474 34.1429 38.3383 34.1429 41.9267V62.9844C34.1429 64.7471 33.6479 66.1321 32.6581 67.1393C31.6682 68.1465 30.3289 68.6502 28.6403 68.6502C26.9517 68.6502 25.6124 68.1465 24.6225 67.1393C23.6909 66.1321 23.225 64.7471 23.225 62.9844V26.4402C23.225 24.8035 23.72 23.4814 24.7099 22.4742C25.6997 21.4669 27.039 20.9633 28.7276 20.9633C30.2416 20.9633 31.4644 21.4669 32.396 22.4742C33.3859 23.4185 33.8809 24.6775 33.8809 26.2514V28.801C35.3366 26.2199 37.2872 24.2369 39.7328 22.8519C42.1784 21.4669 44.9443 20.7745 48.0304 20.7745Z" fill="white"/>
<path d="M109.953 1.03872C111.584 1.03872 112.923 1.54235 113.971 2.54959C115.019 3.55684 115.543 4.87885 115.543 6.51563V62.9844C115.543 64.6841 115.048 66.0376 114.058 67.0449C113.068 68.0521 111.758 68.5557 110.128 68.5557C108.497 68.5557 107.187 68.0521 106.197 67.0449C105.207 66.0376 104.713 64.6841 104.713 62.9844V60.6237C103.432 63.2047 101.568 65.2192 99.1226 66.6672C96.7352 68.1151 93.9985 68.839 90.9124 68.839C87.244 68.839 83.954 67.8318 81.0426 65.8173C78.1894 63.8028 75.9476 60.9699 74.3172 57.3186C72.745 53.6044 71.959 49.3551 71.959 44.5707C71.959 39.7863 72.745 35.5999 74.3172 32.0116C75.9476 28.4232 78.1894 25.6533 81.0426 23.7018C83.8958 21.7502 87.1857 20.7745 90.9124 20.7745C93.9985 20.7745 96.7352 21.4669 99.1226 22.8519C101.51 24.2369 103.344 26.1884 104.625 28.7065V6.32677C104.625 4.75294 105.091 3.49389 106.023 2.54959C107.013 1.54235 108.323 1.03872 109.953 1.03872ZM93.7947 59.6794C97.2884 59.6794 99.9669 58.3888 101.83 55.8078C103.752 53.2267 104.713 49.544 104.713 44.7595C104.713 39.9751 103.752 36.3238 101.83 33.8057C99.9669 31.2247 97.3175 29.9341 93.882 29.9341C90.3883 29.9341 87.6807 31.1932 85.7591 33.7113C83.8376 36.2294 82.8768 39.8492 82.8768 44.5707C82.8768 49.3551 83.8376 53.0693 85.7591 55.7133C87.6807 58.3574 90.3592 59.6794 93.7947 59.6794Z" fill="white"/>
<path d="M146.252 68.839C141.884 68.839 138.041 67.8633 134.722 65.9117C131.462 63.9602 128.929 61.1588 127.124 57.5075C125.318 53.8562 124.416 49.6069 124.416 44.7595C124.416 39.9122 125.318 35.6943 127.124 32.106C128.929 28.4547 131.462 25.6533 134.722 23.7018C138.041 21.7502 141.884 20.7745 146.252 20.7745C150.619 20.7745 154.433 21.7502 157.694 23.7018C161.013 25.6533 163.546 28.4547 165.292 32.106C167.097 35.6943 168 39.9122 168 44.7595C168 49.6069 167.097 53.8562 165.292 57.5075C163.546 61.1588 161.013 63.9602 157.694 65.9117C154.433 67.8633 150.619 68.839 146.252 68.839ZM146.164 59.6794C149.716 59.6794 152.424 58.4203 154.287 55.9022C156.15 53.3841 157.082 49.6699 157.082 44.7595C157.082 39.9122 156.15 36.2294 154.287 33.7113C152.424 31.1302 149.745 29.8397 146.252 29.8397C142.758 29.8397 140.05 31.1302 138.129 33.7113C136.265 36.2294 135.334 39.9122 135.334 44.7595C135.334 49.6699 136.265 53.3841 138.129 55.9022C139.992 58.4203 142.671 59.6794 146.164 59.6794Z" fill="white"/>
</svg>
